<mxfile host="app.diagrams.net" agent="Mozilla/5.0 (Windows NT 10.0; Win64; x64) AppleWebKit/537.36 (KHTML, like Gecko) Chrome/135.0.0.0 Safari/537.36" version="27.0.5">
  <diagram name="Page-1" id="cjE0PsWjfZrv4CORlMGY">
    <mxGraphModel dx="1274" dy="787" grid="0" gridSize="10" guides="1" tooltips="1" connect="1" arrows="1" fold="1" page="0" pageScale="1" pageWidth="850" pageHeight="1100" background="#ffffff" math="0" shadow="0">
      <root>
        <mxCell id="0" />
        <mxCell id="1" parent="0" />
        <mxCell id="Ks-E4asuFh9G0frcCpxe-32" value="" style="ellipse;shape=cloud;whiteSpace=wrap;html=1;fillColor=#dae8fc;strokeColor=#6c8ebf;strokeWidth=3;fontSize=14;fontStyle=1" vertex="1" parent="1">
          <mxGeometry x="260" y="220" width="310" height="220" as="geometry" />
        </mxCell>
        <mxCell id="Ks-E4asuFh9G0frcCpxe-43" value="" style="rounded=0;whiteSpace=wrap;html=1;fillColor=#f8cecc;strokeColor=#b85450;strokeWidth=3;fontSize=14;fontStyle=1" vertex="1" parent="1">
          <mxGeometry x="-200" y="720" width="720" height="200" as="geometry" />
        </mxCell>
        <mxCell id="Ks-E4asuFh9G0frcCpxe-13" value="" style="rounded=0;whiteSpace=wrap;html=1;fillColor=none;strokeWidth=3;fontSize=14;fontStyle=1" vertex="1" parent="1">
          <mxGeometry x="320" y="560" width="200" height="120" as="geometry" />
        </mxCell>
        <mxCell id="Ks-E4asuFh9G0frcCpxe-1" value="&lt;div&gt;Human Presence Authenticator&lt;/div&gt;(Thingy 52)" style="rounded=0;whiteSpace=wrap;html=1;fillColor=#e1d5e7;strokeColor=#9673a6;strokeWidth=3;fontSize=14;fontStyle=1" vertex="1" parent="1">
          <mxGeometry x="-40" y="320" width="120" height="80" as="geometry" />
        </mxCell>
        <mxCell id="Ks-E4asuFh9G0frcCpxe-2" value="&lt;div&gt;Tamper Detector&lt;/div&gt;(Disco L475)" style="rounded=0;whiteSpace=wrap;html=1;fillColor=#e1d5e7;strokeColor=#9673a6;strokeWidth=3;fontSize=14;fontStyle=1" vertex="1" parent="1">
          <mxGeometry x="-200" y="320" width="120" height="80" as="geometry" />
        </mxCell>
        <mxCell id="Ks-E4asuFh9G0frcCpxe-3" value="&lt;div&gt;Locking Mechanism&lt;/div&gt;&lt;div&gt;(s&lt;span style=&quot;background-color: transparent; color: light-dark(rgb(0, 0, 0), rgb(255, 255, 255));&quot;&gt;ervo)&lt;/span&gt;&lt;/div&gt;" style="rounded=0;whiteSpace=wrap;html=1;fillColor=#e1d5e7;strokeColor=#9673a6;strokeWidth=3;fontSize=14;fontStyle=1" vertex="1" parent="1">
          <mxGeometry x="330" y="570" width="180" height="40" as="geometry" />
        </mxCell>
        <mxCell id="Ks-E4asuFh9G0frcCpxe-4" value="" style="rounded=0;whiteSpace=wrap;html=1;fillColor=none;strokeWidth=3;fontSize=14;fontStyle=1" vertex="1" parent="1">
          <mxGeometry x="-200" y="480" width="440" height="200" as="geometry" />
        </mxCell>
        <mxCell id="Ks-E4asuFh9G0frcCpxe-31" style="edgeStyle=orthogonalEdgeStyle;rounded=0;orthogonalLoop=1;jettySize=auto;html=1;exitX=0.5;exitY=0;exitDx=0;exitDy=0;entryX=0.5;entryY=1;entryDx=0;entryDy=0;strokeWidth=3;fontSize=14;fontStyle=1" edge="1" parent="1" source="Ks-E4asuFh9G0frcCpxe-5" target="Ks-E4asuFh9G0frcCpxe-7">
          <mxGeometry relative="1" as="geometry" />
        </mxCell>
        <mxCell id="Ks-E4asuFh9G0frcCpxe-5" value="&lt;div&gt;Cloud Metrics Gateway&lt;/div&gt;&lt;div&gt;(PC)&lt;/div&gt;" style="rounded=0;whiteSpace=wrap;html=1;fillColor=#e1d5e7;strokeColor=#9673a6;strokeWidth=3;fontSize=14;fontStyle=1" vertex="1" parent="1">
          <mxGeometry x="320" y="480" width="200" height="40" as="geometry" />
        </mxCell>
        <mxCell id="Ks-E4asuFh9G0frcCpxe-6" value="&lt;div&gt;Keypad Display&lt;/div&gt;(Core 2)" style="rounded=0;whiteSpace=wrap;html=1;fillColor=#e1d5e7;strokeColor=#9673a6;strokeWidth=3;fontSize=14;fontStyle=1" vertex="1" parent="1">
          <mxGeometry x="120" y="320" width="120" height="80" as="geometry" />
        </mxCell>
        <mxCell id="Ks-E4asuFh9G0frcCpxe-7" value="1: Tago&amp;nbsp;&lt;span style=&quot;background-color: transparent; color: light-dark(rgb(0, 0, 0), rgb(255, 255, 255));&quot;&gt;(web dashboard)&lt;/span&gt;&lt;div&gt;&lt;br&gt;&lt;div&gt;2: Public Blockchain&lt;/div&gt;&lt;/div&gt;" style="rounded=0;whiteSpace=wrap;html=1;fillColor=none;strokeColor=none;strokeWidth=3;fontSize=14;fontStyle=1" vertex="1" parent="1">
          <mxGeometry x="320" y="313" width="200" height="50" as="geometry" />
        </mxCell>
        <mxCell id="Ks-E4asuFh9G0frcCpxe-11" style="edgeStyle=orthogonalEdgeStyle;rounded=0;orthogonalLoop=1;jettySize=auto;html=1;exitX=0.5;exitY=1;exitDx=0;exitDy=0;entryX=0.5;entryY=0;entryDx=0;entryDy=0;strokeWidth=3;fontSize=14;fontStyle=1" edge="1" parent="1" source="Ks-E4asuFh9G0frcCpxe-8" target="Ks-E4asuFh9G0frcCpxe-2">
          <mxGeometry relative="1" as="geometry" />
        </mxCell>
        <mxCell id="Ks-E4asuFh9G0frcCpxe-8" value="magnetometer &amp;amp; accellerometer" style="rounded=0;whiteSpace=wrap;html=1;fillColor=#d5e8d4;strokeColor=#82b366;strokeWidth=3;fontSize=14;fontStyle=1" vertex="1" parent="1">
          <mxGeometry x="-200" y="240" width="120" height="40" as="geometry" />
        </mxCell>
        <mxCell id="Ks-E4asuFh9G0frcCpxe-24" style="edgeStyle=orthogonalEdgeStyle;rounded=0;orthogonalLoop=1;jettySize=auto;html=1;exitX=0.5;exitY=1;exitDx=0;exitDy=0;entryX=0.5;entryY=0;entryDx=0;entryDy=0;strokeWidth=3;fontSize=14;fontStyle=1" edge="1" parent="1" source="Ks-E4asuFh9G0frcCpxe-9" target="Ks-E4asuFh9G0frcCpxe-1">
          <mxGeometry relative="1" as="geometry" />
        </mxCell>
        <mxCell id="Ks-E4asuFh9G0frcCpxe-9" value="gas sensor" style="rounded=0;whiteSpace=wrap;html=1;fillColor=#d5e8d4;strokeColor=#82b366;strokeWidth=3;fontSize=14;fontStyle=1" vertex="1" parent="1">
          <mxGeometry x="-40" y="240" width="120" height="40" as="geometry" />
        </mxCell>
        <mxCell id="Ks-E4asuFh9G0frcCpxe-16" style="edgeStyle=orthogonalEdgeStyle;rounded=0;orthogonalLoop=1;jettySize=auto;html=1;exitX=1;exitY=0.25;exitDx=0;exitDy=0;entryX=0;entryY=0.25;entryDx=0;entryDy=0;strokeWidth=3;fontSize=14;fontStyle=1" edge="1" parent="1" source="Ks-E4asuFh9G0frcCpxe-14" target="Ks-E4asuFh9G0frcCpxe-15">
          <mxGeometry relative="1" as="geometry" />
        </mxCell>
        <mxCell id="Ks-E4asuFh9G0frcCpxe-14" value="OPEN" style="rounded=0;whiteSpace=wrap;html=1;fillColor=#ffe6cc;strokeColor=#d79b00;strokeWidth=3;fontSize=14;fontStyle=1" vertex="1" parent="1">
          <mxGeometry x="330" y="620" width="70" height="50" as="geometry" />
        </mxCell>
        <mxCell id="Ks-E4asuFh9G0frcCpxe-17" style="edgeStyle=orthogonalEdgeStyle;rounded=0;orthogonalLoop=1;jettySize=auto;html=1;exitX=0;exitY=0.75;exitDx=0;exitDy=0;entryX=1;entryY=0.75;entryDx=0;entryDy=0;strokeWidth=3;fontSize=14;fontStyle=1" edge="1" parent="1" source="Ks-E4asuFh9G0frcCpxe-15" target="Ks-E4asuFh9G0frcCpxe-14">
          <mxGeometry relative="1" as="geometry" />
        </mxCell>
        <mxCell id="Ks-E4asuFh9G0frcCpxe-15" value="CLOSED" style="rounded=0;whiteSpace=wrap;html=1;fillColor=#ffe6cc;strokeColor=#d79b00;strokeWidth=3;fontSize=14;fontStyle=1" vertex="1" parent="1">
          <mxGeometry x="440" y="620" width="70" height="50" as="geometry" />
        </mxCell>
        <mxCell id="Ks-E4asuFh9G0frcCpxe-27" value="" style="endArrow=classic;html=1;rounded=0;entryX=0;entryY=0.5;entryDx=0;entryDy=0;exitX=0.998;exitY=0.1;exitDx=0;exitDy=0;exitPerimeter=0;strokeWidth=3;fontSize=14;fontStyle=1" edge="1" parent="1" source="Ks-E4asuFh9G0frcCpxe-4" target="Ks-E4asuFh9G0frcCpxe-5">
          <mxGeometry width="50" height="50" relative="1" as="geometry">
            <mxPoint x="90" y="510" as="sourcePoint" />
            <mxPoint x="140" y="460" as="targetPoint" />
          </mxGeometry>
        </mxCell>
        <mxCell id="Ks-E4asuFh9G0frcCpxe-28" value="" style="endArrow=classic;html=1;rounded=0;entryX=0;entryY=0.5;entryDx=0;entryDy=0;exitX=1.005;exitY=0.7;exitDx=0;exitDy=0;exitPerimeter=0;strokeWidth=3;fontSize=14;fontStyle=1" edge="1" parent="1" source="Ks-E4asuFh9G0frcCpxe-4" target="Ks-E4asuFh9G0frcCpxe-13">
          <mxGeometry width="50" height="50" relative="1" as="geometry">
            <mxPoint x="90" y="510" as="sourcePoint" />
            <mxPoint x="140" y="460" as="targetPoint" />
          </mxGeometry>
        </mxCell>
        <mxCell id="Ks-E4asuFh9G0frcCpxe-30" style="edgeStyle=orthogonalEdgeStyle;rounded=0;orthogonalLoop=1;jettySize=auto;html=1;exitX=0.5;exitY=1;exitDx=0;exitDy=0;entryX=0.5;entryY=0;entryDx=0;entryDy=0;strokeWidth=3;fontSize=14;fontStyle=1" edge="1" parent="1" source="Ks-E4asuFh9G0frcCpxe-29" target="Ks-E4asuFh9G0frcCpxe-6">
          <mxGeometry relative="1" as="geometry" />
        </mxCell>
        <mxCell id="Ks-E4asuFh9G0frcCpxe-29" value="touchpad" style="rounded=0;whiteSpace=wrap;html=1;fillColor=#d5e8d4;strokeColor=#82b366;strokeWidth=3;fontSize=14;fontStyle=1" vertex="1" parent="1">
          <mxGeometry x="120" y="240" width="120" height="40" as="geometry" />
        </mxCell>
        <mxCell id="Ks-E4asuFh9G0frcCpxe-34" value="" style="endArrow=classic;html=1;rounded=0;exitX=0.5;exitY=1;exitDx=0;exitDy=0;entryX=0.136;entryY=-0.02;entryDx=0;entryDy=0;entryPerimeter=0;strokeWidth=3;fontSize=14;fontStyle=1" edge="1" parent="1" source="Ks-E4asuFh9G0frcCpxe-2" target="Ks-E4asuFh9G0frcCpxe-4">
          <mxGeometry width="50" height="50" relative="1" as="geometry">
            <mxPoint x="90" y="510" as="sourcePoint" />
            <mxPoint x="140" y="460" as="targetPoint" />
          </mxGeometry>
        </mxCell>
        <mxCell id="Ks-E4asuFh9G0frcCpxe-35" value="" style="endArrow=classic;html=1;rounded=0;exitX=0.5;exitY=1;exitDx=0;exitDy=0;entryX=0.136;entryY=-0.02;entryDx=0;entryDy=0;entryPerimeter=0;strokeWidth=3;fontSize=14;fontStyle=1" edge="1" parent="1">
          <mxGeometry width="50" height="50" relative="1" as="geometry">
            <mxPoint x="19.5" y="400" as="sourcePoint" />
            <mxPoint x="19.5" y="476" as="targetPoint" />
          </mxGeometry>
        </mxCell>
        <mxCell id="Ks-E4asuFh9G0frcCpxe-36" value="" style="endArrow=classic;html=1;rounded=0;exitX=0.5;exitY=1;exitDx=0;exitDy=0;entryX=0.136;entryY=-0.02;entryDx=0;entryDy=0;entryPerimeter=0;strokeWidth=3;fontSize=14;fontStyle=1" edge="1" parent="1">
          <mxGeometry width="50" height="50" relative="1" as="geometry">
            <mxPoint x="179.5" y="404" as="sourcePoint" />
            <mxPoint x="179.5" y="480" as="targetPoint" />
          </mxGeometry>
        </mxCell>
        <mxCell id="Ks-E4asuFh9G0frcCpxe-39" value="Base&lt;div&gt;(nrf52840 DK)&lt;/div&gt;" style="rounded=0;whiteSpace=wrap;html=1;fillColor=#e1d5e7;strokeColor=#9673a6;strokeWidth=3;fontSize=14;fontStyle=1" vertex="1" parent="1">
          <mxGeometry x="-200" y="480" width="440" height="200" as="geometry" />
        </mxCell>
        <mxCell id="Ks-E4asuFh9G0frcCpxe-45" style="edgeStyle=orthogonalEdgeStyle;rounded=0;orthogonalLoop=1;jettySize=auto;html=1;exitX=0.5;exitY=0;exitDx=0;exitDy=0;entryX=0.5;entryY=0;entryDx=0;entryDy=0;startArrow=classic;startFill=1;strokeWidth=3;fontSize=14;fontStyle=1" edge="1" parent="1" source="Ks-E4asuFh9G0frcCpxe-40" target="Ks-E4asuFh9G0frcCpxe-41">
          <mxGeometry relative="1" as="geometry">
            <Array as="points">
              <mxPoint x="-80" y="760" />
              <mxPoint x="160" y="760" />
            </Array>
          </mxGeometry>
        </mxCell>
        <mxCell id="Ks-E4asuFh9G0frcCpxe-40" value="Base&lt;div&gt;(nrf52840 DK)&lt;/div&gt;" style="rounded=0;whiteSpace=wrap;html=1;fillColor=#e1d5e7;strokeColor=#9673a6;strokeWidth=3;fontSize=14;fontStyle=1" vertex="1" parent="1">
          <mxGeometry x="-160" y="800" width="160" height="80" as="geometry" />
        </mxCell>
        <mxCell id="Ks-E4asuFh9G0frcCpxe-41" value="&lt;div&gt;Human Presence Authenticator&lt;/div&gt;(Thingy 52)" style="rounded=0;whiteSpace=wrap;html=1;fillColor=#e1d5e7;strokeColor=#9673a6;strokeWidth=3;fontSize=14;fontStyle=1" vertex="1" parent="1">
          <mxGeometry x="80" y="800" width="160" height="80" as="geometry" />
        </mxCell>
        <mxCell id="Ks-E4asuFh9G0frcCpxe-46" style="edgeStyle=orthogonalEdgeStyle;rounded=0;orthogonalLoop=1;jettySize=auto;html=1;exitX=0.5;exitY=0;exitDx=0;exitDy=0;entryX=0.5;entryY=0;entryDx=0;entryDy=0;startArrow=classic;startFill=1;strokeWidth=3;fontSize=14;fontStyle=1" edge="1" parent="1" source="Ks-E4asuFh9G0frcCpxe-42" target="Ks-E4asuFh9G0frcCpxe-41">
          <mxGeometry relative="1" as="geometry">
            <Array as="points">
              <mxPoint x="400" y="760" />
              <mxPoint x="160" y="760" />
            </Array>
          </mxGeometry>
        </mxCell>
        <mxCell id="Ks-E4asuFh9G0frcCpxe-42" value="&lt;div&gt;Cloud Metrics Gateway&lt;/div&gt;&lt;div&gt;(PC)&lt;/div&gt;" style="rounded=0;whiteSpace=wrap;html=1;fillColor=#e1d5e7;strokeColor=#9673a6;strokeWidth=3;fontSize=14;fontStyle=1" vertex="1" parent="1">
          <mxGeometry x="320" y="800" width="160" height="80" as="geometry" />
        </mxCell>
        <mxCell id="Ks-E4asuFh9G0frcCpxe-44" value="IoT BLOCKCHAIN" style="text;html=1;align=center;verticalAlign=middle;resizable=0;points=[];autosize=1;strokeColor=none;fillColor=none;strokeWidth=3;fontSize=14;fontStyle=1" vertex="1" parent="1">
          <mxGeometry x="-200" y="694" width="133" height="29" as="geometry" />
        </mxCell>
      </root>
    </mxGraphModel>
  </diagram>
</mxfile>
